HIERARCHY
ROOT Hips
{
  OFFSET 45.4827 92.4961 -16.9942
  CHANNELS 6 Xposition Yposition Zposition Zrotation Xrotation Yrotation
  JOINT Chest
  {
    OFFSET 1.23234e-007 14.8421 1.27321e-009
    CHANNELS 6 Xposition Yposition Zposition Zrotation Xrotation Yrotation
    JOINT LeftCollar
    {
      OFFSET 6.64893 27.3161 3.27471
      CHANNELS 6 Xposition Yposition Zposition Zrotation Xrotation Yrotation
      JOINT LeftUpArm
      {
        OFFSET 10.8584 2.41798 -0.945791
        CHANNELS 6 Xposition Yposition Zposition Zrotation Xrotation Yrotation
        JOINT LeftLowArm
        {
          OFFSET 3.77631 -24.5904 -1.70468
          CHANNELS 6 Xposition Yposition Zposition Zrotation Xrotation Yrotation
          JOINT LeftHand
          {
            OFFSET 1.01026 -21.1231 1.74131
            CHANNELS 6 Xposition Yposition Zposition Zrotation Xrotation Yrotation
            End Site
            {
              OFFSET 1.17583e-006 -9.81266 -2.89439e-008
            }
          }
        }
      }
    }
    JOINT RightCollar
    {
      OFFSET -6.11406 27.2248 4.23427
      CHANNELS 6 Xposition Yposition Zposition Zrotation Xrotation Yrotation
      JOINT RightUpArm
      {
        OFFSET -10.4566 2.3285 -0.910794
        CHANNELS 6 Xposition Yposition Zposition Zrotation Xrotation Yrotation
        JOINT RightLowArm
        {
          OFFSET -3.86856 -25.191 -1.74633
          CHANNELS 6 Xposition Yposition Zposition Zrotation Xrotation Yrotation
          JOINT RightHand
          {
            OFFSET -1.04759 -20.6242 1.75213
            CHANNELS 6 Xposition Yposition Zposition Zrotation Xrotation Yrotation
            End Site
            {
              OFFSET -2.03487e-006 -9.50367 -4.31372e-006
            }
          }
        }
      }
    }
    JOINT Neck
    {
      OFFSET 0.51659 29.8236 6.51843
      CHANNELS 6 Xposition Yposition Zposition Zrotation Xrotation Yrotation
      JOINT Head
      {
        OFFSET 1.16803e-007 7.47049 6.44171e-007
        CHANNELS 6 Xposition Yposition Zposition Zrotation Xrotation Yrotation
        End Site
        {
          OFFSET -4.32676e-008 16.2908 2.16786e-007
        }
      }
    }
  }
  JOINT LeftUpLeg
  {
    OFFSET 9 -3.38008e-006 -5.23001e-009
    CHANNELS 6 Xposition Yposition Zposition Zrotation Xrotation Yrotation
    JOINT LeftLowLeg
    {
      OFFSET -0.575 -51.431 3.90177
      CHANNELS 6 Xposition Yposition Zposition Zrotation Xrotation Yrotation
      JOINT LeftFoot
      {
        OFFSET 2.13082e-007 -43.5882 -3.90177
        CHANNELS 6 Xposition Yposition Zposition Zrotation Xrotation Yrotation
        End Site
        {
          OFFSET 7.44796e-007 -6.93413 15.0046
        }
      }
    }
  }
  JOINT RightUpLeg
  {
    OFFSET -9 6.86154e-007 -3.19539e-009
    CHANNELS 6 Xposition Yposition Zposition Zrotation Xrotation Yrotation
    JOINT RightLowLeg
    {
      OFFSET 0.575 -51.4311 3.90177
      CHANNELS 6 Xposition Yposition Zposition Zrotation Xrotation Yrotation
      JOINT RightFoot
      {
        OFFSET -7.46079e-007 -43.5882 -3.90177
        CHANNELS 6 Xposition Yposition Zposition Zrotation Xrotation Yrotation
        End Site
        {
          OFFSET 4.66716e-007 -6.93413 15.0046
        }
      }
    }
  }
}
MOTION
Frames:	6
Frame Time:	0.0333333
45.4827 92.4961 -16.9942 0.702316 -9.33266 -0.283625 1.23234e-007 14.8421 1.27321e-009 -1.21626 6.50107 -5.2368 6.64893 27.3161 3.27471 -2.94784 5.93879 -4.20517 10.8584 2.41798 -0.945791 2.61951 -70.5245 -45.8747 3.77631 -24.5904 -1.70468 11.2733 -3.73531 -13.1777 1.01026 -21.1231 1.74131 -0.793205 -4.00928 -0.726475 -6.11406 27.2248 4.23427 -1.96452 7.32629 3.42623 -10.4566 2.3285 -0.910794 -1.28896 -72.2392 37.6148 -3.86856 -25.191 -1.74633 -0.919005 -15.0601 80.3447 -1.04759 -20.6242 1.75213 -4.34678 4.03905 -0.477794 0.51659 29.8236 6.51843 -3.14076 -3.82497 1.10932 1.16803e-007 7.47049 6.44171e-007 1.03459 19.8044 0.177657 9 -3.38008e-006 -5.23001e-009 6.61891 -11.0163 8.78572 -0.575 -51.431 3.90177 1.51293 45.8593 -19.8457 2.13082e-007 -43.5882 -3.90177 12.2759 -18.1262 0.65573 -9 6.86154e-007 -3.19539e-009 -13.6984 -12.3575 -14.1577 0.575 -51.4311 3.90177 -10.1971 43.4825 20.2557 -7.46079e-007 -43.5882 -3.90177 -11.9348 -15.2315 -0.30899 
45.3934 92.4986 -17.009 0.668163 -9.41527 -0.799889 1.23234e-007 14.8421 1.27321e-009 -1.26293 6.56089 -4.74856 6.64893 27.3161 3.27471 -2.94784 5.93879 -4.20517 10.8584 2.41798 -0.945791 2.84733 -70.5801 -45.764 3.77631 -24.5904 -1.70468 11.2552 -3.5681 -13.1275 1.01026 -21.1231 1.74131 -0.429702 -4.47805 -0.69965 -6.11406 27.2248 4.23427 -1.96452 7.32629 3.42623 -10.4566 2.3285 -0.910794 -0.873386 -72.2749 38.7494 -3.86856 -25.191 -1.74633 -1.04447 -14.7767 79.6067 -1.04759 -20.6242 1.75213 -4.3671 3.76223 -0.471646 0.51659 29.8236 6.51843 -2.96845 -3.79024 1.05558 1.16803e-007 7.47049 6.44171e-007 0.859452 19.8243 0.2374 9 -3.38008e-006 -5.23001e-009 6.83485 -10.8143 9.11698 -0.575 -51.431 3.90177 1.27297 45.8196 -19.6838 2.13082e-007 -43.5882 -3.90177 12.2762 -18.1265 0.655792 -9 6.86154e-007 -3.19539e-009 -13.4676 -12.4981 -13.8106 0.575 -51.4311 3.90177 -10.4438 43.5221 20.5416 -7.46079e-007 -43.5882 -3.90177 -11.9267 -15.1503 -0.301097 
45.2164 92.5204 -17.0394 0.502116 -9.65113 -1.71045 1.23234e-007 14.8421 1.27321e-009 -1.21591 6.77487 -3.97709 6.64893 27.3161 3.27471 -2.94784 5.93879 -4.20517 10.8584 2.41798 -0.945791 3.52204 -70.5676 -45.1257 3.77631 -24.5904 -1.70468 11.2872 -3.46999 -12.9914 1.01026 -21.1231 1.74131 -0.303745 -4.46631 -0.6781 -6.11406 27.2248 4.23427 -1.96452 7.32629 3.42623 -10.4566 2.3285 -0.910794 1.46743 -72.384 41.0398 -3.86856 -25.191 -1.74633 -1.6731 -13.9686 79.4081 -1.04759 -20.6242 1.75213 -4.24944 3.77339 -0.461473 0.51659 29.8236 6.51843 -2.99409 -3.57156 1.03002 1.16803e-007 7.47049 6.44171e-007 0.892231 19.7176 0.193752 9 -3.38008e-006 -5.23001e-009 7.34451 -10.3422 9.77972 -0.575 -51.431 3.90177 0.873683 45.7575 -19.4017 2.13082e-007 -43.5882 -3.90177 12.2214 -18.065 0.645832 -9 6.86154e-007 -3.19539e-009 -12.9104 -12.5967 -13.1315 0.575 -51.4311 3.90177 -10.8605 43.4724 20.9074 -7.46079e-007 -43.5882 -3.90177 -11.9168 -15.0686 -0.293104 
45.2105 92.5091 -17.0856 0.384323 -9.6321 -1.61462 1.23234e-007 14.8421 1.27321e-009 -1.08232 6.71591 -4.18949 6.64893 27.3161 3.27471 -2.94784 5.93879 -4.20517 10.8584 2.41798 -0.945791 3.69083 -70.5246 -44.9797 3.77631 -24.5904 -1.70468 11.267 -3.47043 -12.8306 1.01026 -21.1231 1.74131 -0.185401 -4.36726 -0.65241 -6.11406 27.2248 4.23427 -1.96452 7.32629 3.42623 -10.4566 2.3285 -0.910794 1.92107 -72.4216 41.5299 -3.86856 -25.191 -1.74633 -1.78161 -13.6628 79.2871 -1.04759 -20.6242 1.75213 -4.20215 3.79637 -0.457944 0.51659 29.8236 6.51843 -3.03787 -3.44066 1.09127 1.16803e-007 7.47049 6.44171e-007 1.03309 19.6817 0.189182 9 -3.38008e-006 -5.23001e-009 7.4548 -10.4403 9.77438 -0.575 -51.431 3.90177 0.960202 45.8187 -19.5088 2.13082e-007 -43.5882 -3.90177 12.247 -18.0959 0.650698 -9 6.86154e-007 -3.19539e-009 -12.8005 -12.5988 -13.1398 0.575 -51.4311 3.90177 -10.7941 43.4678 20.7718 -7.46079e-007 -43.5882 -3.90177 -11.884 -15.0247 -0.287619 
45.2361 92.5099 -17.1243 0.444908 -9.63624 -1.63513 1.23234e-007 14.8421 1.27321e-009 -1.10494 6.76571 -4.11404 6.64893 27.3161 3.27471 -2.94784 5.93879 -4.20517 10.8584 2.41798 -0.945791 3.4991 -70.5461 -45.2183 3.77631 -24.5904 -1.70468 11.2544 -3.52662 -12.7396 1.01026 -21.1231 1.74131 -0.112514 -4.18952 -0.629376 -6.11406 27.2248 4.23427 -1.96452 7.32629 3.42623 -10.4566 2.3285 -0.910794 0.903406 -72.4517 40.6807 -3.86856 -25.191 -1.74633 -1.45163 -14.0374 79.3273 -1.04759 -20.6242 1.75213 -4.32223 3.73143 -0.46668 0.51659 29.8236 6.51843 -3.01821 -3.67168 1.07479 1.16803e-007 7.47049 6.44171e-007 1.0489 19.7827 0.17549 9 -3.38008e-006 -5.23001e-009 7.36739 -10.4686 9.73679 -0.575 -51.431 3.90177 0.946885 45.8322 -19.436 2.13082e-007 -43.5882 -3.90177 12.2148 -18.0531 0.644165 -9 6.86154e-007 -3.19539e-009 -12.8789 -12.6219 -13.1545 0.575 -51.4311 3.90177 -10.8071 43.4513 20.8403 -7.46079e-007 -43.5882 -3.90177 -11.9088 -15.0476 -0.290808 
45.2746 92.5034 -17.1647 0.517308 -9.69735 -1.73478 1.23234e-007 14.8421 1.27321e-009 -1.15639 6.92794 -3.97401 6.64893 27.3161 3.27471 -2.94784 5.93879 -4.20517 10.8584 2.41798 -0.945791 3.43419 -70.6106 -45.2287 3.77631 -24.5904 -1.70468 11.2214 -3.66024 -12.7634 1.01026 -21.1231 1.74131 0.0381302 -4.18079 -0.604487 -6.11406 27.2248 4.23427 -1.96452 7.32629 3.42623 -10.4566 2.3285 -0.910794 -0.138317 -72.4871 39.6747 -3.86856 -25.191 -1.74633 -1.15249 -14.5043 79.789 -1.04759 -20.6242 1.75213 -4.52796 3.92804 -0.490564 0.51659 29.8236 6.51843 -3.01326 -4.01072 1.08493 1.16803e-007 7.47049 6.44171e-007 1.06171 19.9601 0.183468 9 -3.38008e-006 -5.23001e-009 7.28249 -10.4076 9.74716 -0.575 -51.431 3.90177 0.871189 45.824 -19.3282 2.13082e-007 -43.5882 -3.90177 12.2004 -18.0568 0.643675 -9 6.86154e-007 -3.19539e-009 -12.9841 -12.6297 -13.166 0.575 -51.4311 3.90177 -10.835 43.4628 20.9985 -7.46079e-007 -43.5882 -3.90177 -11.9329 -15.0508 -0.292154 
